# xmcd
#
# Track frame offsets:
#	150
#	11766
#	24760
#	36519
#	48252
#	60130
#	70524
#	83746
#	94622
#	103353
#	118273
#	129640
#	143183
#	153901
#	166596
#	180578
#	195432
#
# Disc length: 2753
#
# Revision: 3
# Processed by: cddbd v1.5.1PL0 Copyright (c) Steve Scherf et al.
# Submitted via: ExactAudioCopy v0.95a4
# Normalized: r1:TSWAP
#
DISCID=d10abf11
DTITLE=Various Artist - Women of Country (2001)
DYEAR=2001
DGENRE=Country
TTITLE0=Donna Fargo - Happiest Girl In The Whole USA
TTITLE1=Lynne Anderson - Rose Garden
TTITLE2=Patsy Cline - Walkin' After Midnight
TTITLE3=Skeeter Davis - The End Of The World
TTITLE4=Sandy Posey - Bring Him Safely Home To Me
TTITLE5=Patsy Cline - Three Cigarettes In The Ashtray
TTITLE6=Donna Fargo - Somebody Special
TTITLE7=Billie Jo Spears - If It Ain't Love
TTITLE8=Patsy Cline - Come On In
TTITLE9=Donna Fargo - That Was Yesterday
TTITLE10=Lynn Anderson - Listen To A Country Song
TTITLE11=Patsy Cline - Life's Railway To Heaven
TTITLE12=Skeeter Davis - Gonna Get Along Without You Now
TTITLE13=Donna Fargo - Don't Be Angry
TTITLE14=Barbara Fairchild - Teddy Bear Song
TTITLE15=Jeannie C Riley - Harper Valley PTA
TTITLE16=Kitty Wells - It Wasn't God Who Made Honky Tonk Angels
EXTD=YEAR: 2000 ID3G: 2
EXTT0=
EXTT1=
EXTT2=
EXTT3=
EXTT4=
EXTT5=
EXTT6=
EXTT7=
EXTT8=
EXTT9=
EXTT10=
EXTT11=
EXTT12=
EXTT13=
EXTT14=
EXTT15=
EXTT16=
PLAYORDER=
